tugOfWar_states
version=1
nRows=33
nColumns=7
inDegrees=yes

# SIMM Motion File Header:
name tugOfWar_states
datacolumns 7
datarows 33
otherdata 1
range 0.15628039 0.18370203
endheader
time	/jointset/ground_block/block_tz/value	/jointset/ground_block/block_tz/speed	/forceset/muscle1/activation	/forceset/muscle1/fiber_length	/forceset/muscle2/activation	/forceset/muscle2/fiber_length
      0.15628039	     -0.03900746	      0.09440458	      0.06215531	      0.05859279	      0.00934528	      0.13556333
      0.15748292	     -0.03889147	      0.09850213	      0.06127578	      0.05871970	      0.00922142	      0.13546795
      0.15844945	     -0.03879469	      0.10174195	      0.06057926	      0.05882518	      0.00912187	      0.13536246
      0.15941598	     -0.03869478	      0.10499417	      0.05989187	      0.05893373	      0.00902231	      0.13529315
      0.16038251	     -0.03859176	      0.10817600	      0.05921345	      0.05904532	      0.00892276	      0.13518455
      0.16134904	     -0.03848566	      0.11136590	      0.05854386	      0.05915991	      0.00882321	      0.13510899
      0.16231557	     -0.03837651	      0.11447901	      0.05788296	      0.05927748	      0.00872366	      0.13497355
      0.16328210	     -0.03826433	      0.11762991	      0.05723061	      0.05939800	      0.00862410	      0.13491302
      0.16424863	     -0.03814916	      0.12067245	      0.05658667	      0.05952146	      0.00852455	      0.13476173
      0.16521516	     -0.03803102	      0.12376744	      0.05595102	      0.05964781	      0.00842500	      0.13470618
      0.16618169	     -0.03790995	      0.12673580	      0.05532352	      0.05977704	      0.00832545	      0.13454217
      0.16714822	     -0.03778597	      0.12976652	      0.05470404	      0.05990910	      0.00822589	      0.13448895
      0.16811475	     -0.03765914	      0.13265641	      0.05409247	      0.06004398	      0.00812634	      0.13431016
      0.16908128	     -0.03752947	      0.13562324	      0.05348868	      0.06018163	      0.00802679	      0.13426073
      0.17004781	     -0.03739702	      0.13843543	      0.05289255	      0.06032202	      0.00792724	      0.13408757
      0.17101434	     -0.03726182	      0.14130117	      0.05230396	      0.06046512	      0.00782768	      0.13402642
      0.17171737	     -0.03716177	      0.14329171	      0.05188050	      0.06057087	      0.00775527	      0.13390814
      0.17242040	     -0.03706033	      0.14529637	      0.05146093	      0.06067802	      0.00768286	      0.13384378
      0.17327678	     -0.03693488	      0.14766781	      0.05095504	      0.06081039	      0.00759465	      0.13371078
      0.17402144	     -0.03682415	      0.14973355	      0.05051971	      0.06092712	      0.00751795	      0.13363564
      0.17476610	     -0.03671189	      0.15174076	      0.05008859	      0.06104535	      0.00744125	      0.13351209
      0.17551076	     -0.03659815	      0.15375518	      0.04966162	      0.06116506	      0.00736455	      0.13343513
      0.17625542	     -0.03648292	      0.15570911	      0.04923876	      0.06128622	      0.00728785	      0.13330429
      0.17700008	     -0.03636623	      0.15767440	      0.04881996	      0.06140883	      0.00721115	      0.13322917
      0.17774474	     -0.03624811	      0.15957463	      0.04840517	      0.06153285	      0.00713445	      0.13309265
      0.17848940	     -0.03612856	      0.16148877	      0.04799435	      0.06165828	      0.00705775	      0.13301803
      0.17923406	     -0.03600762	      0.16333466	      0.04758744	      0.06178510	      0.00698105	      0.13287600
      0.17997872	     -0.03588529	      0.16519690	      0.04718442	      0.06191328	      0.00690435	      0.13280181
      0.18072338	     -0.03576160	      0.16698807	      0.04678523	      0.06204281	      0.00682765	      0.13265498
      0.18146804	     -0.03563658	      0.16879736	      0.04638983	      0.06217367	      0.00675095	      0.13258069
      0.18221271	     -0.03551023	      0.17053346	      0.04599817	      0.06230583	      0.00667425	      0.13242938
      0.18295737	     -0.03538258	      0.17228916	      0.04561022	      0.06243929	      0.00659755	      0.13235480
      0.18370203	     -0.03525365	      0.17397000	      0.04522593	      0.06257401	      0.00652085	      0.13219954
